<svg xmlns="http://www.w3.org/2000/svg" width="304" height="124" fill="none"><path stroke="#fff" stroke-width="7" d="M173.61 55.255l-17.711-23.381a1 1 0 0 0-.983-.379l-25.469 4.816a1 1 0 0 0-.623 1.57l42.84 58.946a1 1 0 0 1-.471 1.53l-60.12 21.557a1 1 0 0 1-1.207-.447L44.311 4.007a1 1 0 0 0-1.024-.495L4.349 9.61a1 1 0 0 0-.735 1.445L43.606 88.84a1 1 0 0 0 1.135.512l128.317-32.523a1 1 0 0 0 .552-1.574z"/><path stroke="url(#a)" stroke-width="3.5" d="M177.169 52.748l-17.304-22.794a1 1 0 0 0-.982-.378l-24.879 4.694a1 1 0 0 0-.623 1.572l41.887 57.507a1 1 0 0 1-.472 1.53l-58.795 21.036a1 1 0 0 1-1.206-.447L50.651 2.743a1 1 0 0 0-1.024-.494L11.563 8.196a1 1 0 0 0-.735 1.446l39.118 75.917a1 1 0 0 0 1.134.512l125.538-31.749a1 1 0 0 0 .551-1.574z"/><path fill="#fff" d="M194.465 68.365h11.809v3.672h-16.329V45.57h4.52v22.796zm26.405 3.672c-.191-.376-.357-.988-.5-1.836-1.382 1.467-3.073 2.2-5.074 2.2-1.942 0-3.526-.564-4.752-1.69-1.227-1.128-1.841-2.522-1.841-4.182 0-2.096.763-3.702 2.287-4.817 1.537-1.127 3.728-1.69 6.575-1.69h2.662V58.73c0-1.019-.28-1.83-.84-2.436-.56-.619-1.411-.928-2.555-.928-.988 0-1.798.255-2.429.764-.632.497-.947 1.133-.947 1.909h-4.342c0-1.079.352-2.085 1.054-3.018.703-.945 1.656-1.684 2.859-2.218 1.215-.533 2.567-.8 4.055-.8 2.263 0 4.068.582 5.414 1.746 1.346 1.15 2.036 2.775 2.072 4.871v8.872c0 1.769.244 3.18.733 4.235v.31h-4.431zm-4.77-3.181c.857 0 1.661-.212 2.412-.636.762-.424 1.334-.994 1.715-1.71v-3.708h-2.341c-1.608 0-2.816.285-3.626.855-.81.57-1.215 1.375-1.215 2.418 0 .848.274 1.527.822 2.036.559.496 1.304.745 2.233.745zm23.136-12.452a10.567 10.567 0 0 0-1.769-.146c-1.989 0-3.329.776-4.02 2.327v13.452h-4.341V52.368h4.145l.107 2.2c1.048-1.71 2.501-2.563 4.359-2.563.62 0 1.132.084 1.537.254l-.018 4.145zm13.756 15.633c-.19-.376-.357-.988-.5-1.836-1.382 1.467-3.073 2.2-5.074 2.2-1.941 0-3.525-.564-4.752-1.69-1.227-1.128-1.84-2.522-1.84-4.182 0-2.096.762-3.702 2.287-4.817 1.536-1.127 3.728-1.69 6.574-1.69h2.662V58.73c0-1.019-.28-1.83-.84-2.436-.559-.619-1.411-.928-2.554-.928-.989 0-1.799.255-2.43.764-.631.497-.947 1.133-.947 1.909h-4.341c0-1.079.351-2.085 1.054-3.018.702-.945 1.655-1.684 2.858-2.218 1.215-.533 2.567-.8 4.056-.8 2.263 0 4.067.582 5.413 1.746 1.346 1.15 2.037 2.775 2.072 4.871v8.872c0 1.769.245 3.18.733 4.235v.31h-4.431zm-4.77-3.181a4.82 4.82 0 0 0 2.412-.636c.762-.424 1.334-.994 1.715-1.71v-3.708h-2.34c-1.608 0-2.817.285-3.627.855-.81.57-1.215 1.375-1.215 2.418 0 .848.274 1.527.822 2.036.56.496 1.304.745 2.233.745zm19.545-2.418l4.091-14.07h4.485l-6.7 19.67h-3.77l-6.753-19.67h4.502l4.145 14.07zM287.33 72.4c-2.751 0-4.985-.878-6.7-2.635-1.703-1.77-2.554-4.12-2.554-7.053v-.546c0-1.963.369-3.714 1.107-5.253.751-1.552 1.799-2.757 3.145-3.618 1.345-.86 2.846-1.29 4.502-1.29 2.632 0 4.663.854 6.092 2.563 1.441 1.708 2.162 4.126 2.162 7.253v1.781h-12.631c.131 1.624.661 2.909 1.59 3.854.941.945 2.12 1.418 3.537 1.418 1.989 0 3.609-.818 4.86-2.454l2.34 2.272c-.774 1.176-1.81 2.09-3.109 2.745-1.286.643-2.733.964-4.341.964zm-.518-16.85c-1.191 0-2.156.423-2.894 1.272-.727.848-1.191 2.03-1.394 3.545h8.272v-.328c-.095-1.478-.482-2.593-1.161-3.345-.679-.763-1.62-1.145-2.823-1.145zm16.275 16.487h-4.341V44.115h4.341v27.922z"/><path fill="url(#b)" d="M198.005 68.495h11.524v3.554h-15.935V46.434h4.411v22.061z"/><path fill="url(#c)" d="M223.772 72.049c-.186-.364-.349-.956-.489-1.777-1.348 1.419-2.998 2.128-4.951 2.128-1.894 0-3.44-.545-4.637-1.636-1.197-1.09-1.796-2.439-1.796-4.046 0-2.029.744-3.583 2.232-4.662 1.499-1.09 3.638-1.636 6.415-1.636h2.598v-1.249c0-.985-.273-1.77-.819-2.357-.547-.598-1.378-.897-2.493-.897-.965 0-1.755.246-2.371.739-.616.48-.924 1.096-.924 1.847H212.3c0-1.044.343-2.017 1.029-2.92.686-.915 1.615-1.63 2.789-2.147 1.186-.516 2.505-.774 3.958-.774 2.208 0 3.969.563 5.282 1.689 1.313 1.114 1.987 2.686 2.022 4.715v8.585c0 1.712.239 3.078.715 4.099v.299h-4.323zm-4.655-3.079c.837 0 1.621-.205 2.353-.616.744-.41 1.302-.961 1.674-1.653v-3.59h-2.284c-1.569 0-2.748.277-3.539.828-.79.55-1.185 1.33-1.185 2.34 0 .82.267 1.477.802 1.97.546.48 1.272.721 2.179.721z"/><path fill="url(#d)" d="M241.693 56.92a10.393 10.393 0 0 0-1.726-.141c-1.941 0-3.248.75-3.922 2.252v13.018h-4.237V53.014h4.045l.105 2.129c1.022-1.654 2.44-2.48 4.253-2.48.605 0 1.104.081 1.5.245l-.018 4.011z"/><path fill="url(#e)" d="M255.117 72.049c-.186-.364-.349-.956-.488-1.777-1.349 1.419-2.999 2.128-4.951 2.128-1.895 0-3.441-.545-4.638-1.636-1.197-1.09-1.795-2.439-1.795-4.046 0-2.029.743-3.583 2.231-4.662 1.499-1.09 3.638-1.636 6.416-1.636h2.597v-1.249c0-.985-.273-1.77-.819-2.357-.546-.598-1.377-.897-2.493-.897-.965 0-1.755.246-2.371.739-.616.48-.924 1.096-.924 1.847h-4.236c0-1.044.342-2.017 1.028-2.92.686-.915 1.616-1.63 2.79-2.147 1.185-.516 2.504-.774 3.957-.774 2.208 0 3.969.563 5.282 1.689 1.314 1.114 1.988 2.686 2.023 4.715v8.585c0 1.712.238 3.078.714 4.099v.299h-4.323zm-4.655-3.079a4.74 4.74 0 0 0 2.354-.616c.743-.41 1.301-.961 1.673-1.653v-3.59h-2.284c-1.569 0-2.748.277-3.539.828-.79.55-1.185 1.33-1.185 2.34 0 .82.267 1.477.802 1.97.546.48 1.273.721 2.179.721z"/><path fill="url(#f)" d="M269.534 66.63l3.992-13.616h4.376l-6.537 19.035h-3.679l-6.59-19.035h4.394l4.044 13.616z"/><path fill="url(#g)" d="M288.624 72.4c-2.685 0-4.864-.85-6.538-2.55-1.662-1.713-2.493-3.988-2.493-6.826v-.528c0-1.9.361-3.595 1.081-5.084.732-1.501 1.755-2.668 3.068-3.5 1.314-.834 2.778-1.25 4.394-1.25 2.568 0 4.55.827 5.944 2.48 1.407 1.654 2.11 3.994 2.11 7.02v1.724h-12.326c.128 1.571.645 2.815 1.552 3.73.918.914 2.069 1.372 3.452 1.372 1.941 0 3.521-.792 4.742-2.375l2.283 2.199c-.755 1.137-1.766 2.023-3.033 2.656-1.255.622-2.667.932-4.236.932zm-.506-16.307c-1.162 0-2.103.41-2.824 1.231-.709.821-1.162 1.965-1.36 3.43h8.072v-.316c-.093-1.431-.471-2.51-1.133-3.237-.663-.739-1.581-1.108-2.755-1.108z"/><path fill="url(#h)" d="M304 72.049h-4.236V45.027H304V72.05z"/><defs><linearGradient id="a" x1="178.083" x2="178.083" y1="116.198" y2="2.143" gradientUnits="userSpaceOnUse"><stop stop-color="#3E9679"/><stop offset=".523" stop-color="#4DA567"/><stop offset="1" stop-color="#58B25B"/></linearGradient><linearGradient id="b" x1="304" x2="304" y1="72.4" y2="45.027" gradientUnits="userSpaceOnUse"><stop stop-color="#3E9679"/><stop offset=".523" stop-color="#4DA567"/><stop offset="1" stop-color="#58B25B"/></linearGradient><linearGradient id="c" x1="304" x2="304" y1="72.4" y2="45.027" gradientUnits="userSpaceOnUse"><stop stop-color="#3E9679"/><stop offset=".523" stop-color="#4DA567"/><stop offset="1" stop-color="#58B25B"/></linearGradient><linearGradient id="d" x1="304" x2="304" y1="72.4" y2="45.027" gradientUnits="userSpaceOnUse"><stop stop-color="#3E9679"/><stop offset=".523" stop-color="#4DA567"/><stop offset="1" stop-color="#58B25B"/></linearGradient><linearGradient id="e" x1="304" x2="304" y1="72.4" y2="45.027" gradientUnits="userSpaceOnUse"><stop stop-color="#3E9679"/><stop offset=".523" stop-color="#4DA567"/><stop offset="1" stop-color="#58B25B"/></linearGradient><linearGradient id="f" x1="304" x2="304" y1="72.4" y2="45.027" gradientUnits="userSpaceOnUse"><stop stop-color="#3E9679"/><stop offset=".523" stop-color="#4DA567"/><stop offset="1" stop-color="#58B25B"/></linearGradient><linearGradient id="g" x1="304" x2="304" y1="72.4" y2="45.027" gradientUnits="userSpaceOnUse"><stop stop-color="#3E9679"/><stop offset=".523" stop-color="#4DA567"/><stop offset="1" stop-color="#58B25B"/></linearGradient><linearGradient id="h" x1="304" x2="304" y1="72.4" y2="45.027" gradientUnits="userSpaceOnUse"><stop stop-color="#3E9679"/><stop offset=".523" stop-color="#4DA567"/><stop offset="1" stop-color="#58B25B"/></linearGradient></defs></svg>